<svg width="24" height="24" viewBox="0 0 24 24" fill="none" xmlns="http://www.w3.org/2000/svg">
  <path d="M17.6 9.43l-1.41-1.42L12 12.17l-4.19-4.16L6.4 9.43 12 15l5.6-5.57zM5.5 19c0 .83.67 1.5 1.5 1.5h10c.83 0 1.5-.67 1.5-1.5v-1H5.5v1z" fill="#3DDC84"/>
  <path d="M17.6 9.43l-1.41-1.42L12 12.17l-4.19-4.16L6.4 9.43 12 15l5.6-5.57zM5.5 19c0 .83.67 1.5 1.5 1.5h10c.83 0 1.5-.67 1.5-1.5v-1H5.5v1z" fill="white" opacity=".2"/>
  <path fill="#3DDC84" d="M3 5h1v14H3V5zm16 0h1v14h-1V5z"/>
  <path d="M3 5h1v14H3V5zm16 0h1v14h-1V5z" fill="white" opacity=".2"/>
</svg>