<svg width="24" height="24" viewBox="0 0 24 24" fill="none" xmlns="http://www.w3.org/2000/svg">
  <rect width="24" height="24" fill="#F7DF1E"/>
  <path d="M7.2 17.6H5.3V7.2h1.9v10.4zm5.3-9.8c0-.6-.1-1.1-.3-1.5-.2-.4-.5-.7-.9-.9-.4-.2-.9-.3-1.4-.3-.6 0-1.1.1-1.5.3-.4.2-.7.5-.9.9-.2.4-.3.9-.3 1.5 0 .6.1 1.1.3 1.5.2.4.5.7.9.9.4.2.9.3 1.5.3.5 0 1-.1 1.4-.3.4-.2.7-.5.9-.9.2-.4.3-.9.3-1.5zm-1.9 6.3c0 .4-.1.7-.3.9-.2.2-.5.3-.9.3-.4 0-.7-.1-.9-.3-.2-.2-.3-.5-.3-.9 0-.4.1-.7.3-.9.2-.2.5-.3.9-.3.4 0 .7.1.9.3.2.2.3.5.3.9zM19.6 17.6h-1.9v-2.4h-1.5v-1.5h1.5v-2.4h1.9v2.4h1.5v1.5h-1.5v2.4z" fill="#000"/>
</svg>