<svg width="24" height="24" viewBox="0 0 24 24" fill="none" xmlns="http://www.w3.org/2000/svg">
  <path d="M2.8 0c-.3 1.7-.5 3.4-.5 5.1 0 5.1 3.3 9.6 8 11.2v4.2c0 .1 0 .2.1.2.1.1.2.1.3.1.1 0 .2 0 .3-.1v-4.2c4.7-1.6 8-6.1 8-11.2 0-1.7-.2-3.4-.5-5.1h-15.6zm.4 2h15.6c.1 1.1.3 2.2.4 3.3 0 .3 0 .6-.1.9 0 .3-.1.6-.1.9 0 .3-.1.6-.2.8-.1.3-.2.5-.3.8-.1.3-.3.5-.4.7-.1.2-.3.5-.4.7-.2.2-.3.4-.5.6-.2.2-.4.4-.6.5-.2.2-.5.3-.7.5-.3.1-.5.2-.8.3-.3.1-.6.2-.9.2-.3 0-.6-.1-.9-.2-.3-.1-.6-.2-.9-.3-.2-.1-.5-.2-.7-.5-.2-.1-.4-.3-.6-.5-.2-.2-.3-.4-.5-.6-.1-.2-.3-.5-.4-.7-.1-.2-.2-.5-.4-.7-.1-.2-.2-.5-.3-.8-.1-.3-.2-.5-.2-.8 0-.3 0-.6-.1-.9 0-.3.1-.6.1-.9.1-1.1.3-2.2.4-3.3z" fill="#4DB33D"/>
  <path d="M12 16c-4.4 0-8-3.6-8-8s3.6-8 8-8 8 3.6 8 8-3.6 8-8 8zm-4-8c0-2.2 1.8-4 4-4s4 1.8 4 4-1.8 4-4 4-4-1.8-4-4z" fill="white"/>
</svg>